<svg xmlns="http://www.w3.org/2000/svg" viewBox="0 0 720 192" role="img" aria-labelledby="title desc">
  <title id="title">Basira logo</title>
  <desc id="desc">Basira bilingual logo with a teal visibility mark and Arabic and English wordmark.</desc>
  <defs>
    <linearGradient id="base" x1="30" y1="22" x2="134" y2="146" gradientUnits="userSpaceOnUse">
      <stop stop-color="#0b636d"/>
      <stop offset="0.62" stop-color="#004a52"/>
      <stop offset="1" stop-color="#0a1f21"/>
    </linearGradient>
    <linearGradient id="iris" x1="60" y1="58" x2="99" y2="104" gradientUnits="userSpaceOnUse">
      <stop stop-color="#7ef0ff"/>
      <stop offset="1" stop-color="#29abb9"/>
    </linearGradient>
    <filter id="softShadow" x="-20%" y="-20%" width="140%" height="140%">
      <feDropShadow dx="0" dy="8" stdDeviation="8" flood-color="#0b636d" flood-opacity="0.2"/>
    </filter>
  </defs>
  <g transform="translate(24 24)">
    <rect width="144" height="144" rx="32" fill="url(#base)" filter="url(#softShadow)"/>
    <path d="M18 74C33.7 47.3 51.8 34 72 34s38.3 13.3 54 40c-15.7 26.7-33.8 40-54 40S33.7 100.7 18 74Z" fill="#e9fdff"/>
    <circle cx="72" cy="74" r="24" fill="url(#iris)"/>
    <circle cx="72" cy="74" r="10.5" fill="#004a52"/>
    <circle cx="77" cy="66.5" r="5" fill="#ffffff" opacity="0.9"/>
    <path d="M39 96c9.4 9.1 20.3 13.7 33 13.7S95.6 105.1 105 96" fill="none" stroke="#7ef0ff" stroke-width="6" stroke-linecap="round"/>
    <path d="M43.5 56.5C51.6 49.9 61.1 46.6 72 46.6s20.4 3.3 28.5 9.9" fill="none" stroke="#29abb9" stroke-width="5" stroke-linecap="round" opacity="0.72"/>
    <circle cx="39" cy="96" r="6.5" fill="#eab308"/>
    <circle cx="105" cy="96" r="6.5" fill="#eab308"/>
  </g>
  <text x="200" y="83" fill="#004a52" font-family="Cairo, 'Plus Jakarta Sans', Inter, Arial, sans-serif" font-size="56" font-weight="700">بصيرة</text>
  <text x="200" y="132" fill="#0a1f21" font-family="'Plus Jakarta Sans', Inter, Arial, sans-serif" font-size="42" font-weight="700">Basira</text>
  <text x="202" y="158" fill="#4d6266" font-family="Inter, Arial, sans-serif" font-size="16" font-weight="600" letter-spacing="1.2">Patient flow intelligence</text>
</svg>
